<?xml version="1.0"?>
<svg xmlns="http://www.w3.org/2000/svg" viewBox="0 0 26 26" enable-background="new 0 0 26 26">
    <path d="M 9 0 C 8.4 0 8 0.4 8 1 L 8 4 C 8 4.6 8.4 5 9 5 C 9.6 5 10 4.6 10 4 L 10 1 C 10 0.4 9.6 0 9 0 z M 19 0 C 18.4 0 18 0.4 18 1 L 18 4 C 18 4.6 18.4 5 19 5 C 19.6 5 20 4.6 20 4 L 20 1 C 20 0.4 19.6 0 19 0 z M 5 2 C 3.3 2 2 3.3 2 5 L 2 11 L 4 11 L 4 8 L 24 8 L 24 22 C 24 22.6 23.6 23 23 23 L 5 23 C 4.4 23 4 22.6 4 22 L 4 20 L 2 20 L 2 22 C 2 23.7 3.3 25 5 25 L 23 25 C 24.7 25 26 23.7 26 22 L 26 5 C 26 3.3 24.7 2 23 2 L 21 2 L 21 4 C 21 5.1 20.1 6 19 6 C 17.9 6 17 5.1 17 4 L 17 2 L 11 2 L 11 4 C 11 5.1 10.1 6 9 6 C 7.9 6 7 5.1 7 4 L 7 2 L 5 2 z M 6.84375 10.0625 C 6.5625 10.039062 6 10.11875 6 11.09375 L 6 13 L 1 13 C 0.4 13 0 13.4 0 14 L 0 17 C 0 17.6 0.4 18 1 18 L 6 18 L 6 19.90625 C 6 21.20625 7 20.90625 7 20.90625 L 12.90625 15.5 L 7 10.09375 C 7 10.09375 6.9375 10.070312 6.84375 10.0625 z"/>
</svg>
